<svg width="132" height="24" viewBox="0 0 132 24" fill="none" xmlns="http://www.w3.org/2000/svg">
    <path d="M0.704 0.912H8.456C10.344 0.912 11.808 1.368 12.848 2.28C13.904 3.192 14.432 4.432 14.432 6C14.432 7.552 13.904 8.792 12.848 9.72C11.792 10.632 10.328 11.088 8.456 11.088H4.448V18H0.704V0.912ZM7.976 8.232C9.928 8.232 10.904 7.496 10.904 6.024C10.904 4.536 9.928 3.792 7.976 3.792H4.448V8.232H7.976ZM16.6593 5.832H20.2833V18H16.6593V5.832ZM20.4033 0.119998V3.528H16.5393V0.119998H20.4033ZM31.6453 18L26.8693 12.552V18H23.2453V0.335999H26.8693V11.064L31.4293 5.856H35.7733L30.6133 11.688L36.0853 18H31.6453ZM47.8059 12.216H39.7899C39.8539 13.352 40.1499 14.184 40.6779 14.712C41.2059 15.224 41.9899 15.48 43.0299 15.48C43.6539 15.48 44.2779 15.376 44.9019 15.168C45.5259 14.96 46.1019 14.656 46.6299 14.256L47.5899 16.704C47.0139 17.168 46.2939 17.536 45.4299 17.808C44.5819 18.064 43.7259 18.192 42.8619 18.192C40.8139 18.192 39.2059 17.632 38.0379 16.512C36.8699 15.376 36.2859 13.832 36.2859 11.88C36.2859 10.648 36.5339 9.552 37.0299 8.592C37.5419 7.616 38.2539 6.864 39.1659 6.336C40.0779 5.792 41.1099 5.52 42.2619 5.52C43.9739 5.52 45.3259 6.08 46.3179 7.2C47.3099 8.304 47.8059 9.8 47.8059 11.688V12.216ZM42.3579 8.064C41.6699 8.064 41.1099 8.264 40.6779 8.664C40.2619 9.064 39.9899 9.648 39.8619 10.416H44.6859C44.4939 8.848 43.7179 8.064 42.3579 8.064Z" fill="#E8345A"/>
    <path d="M61.2892 9.168C62.2812 9.456 63.0492 9.96 63.5932 10.68C64.1372 11.4 64.4092 12.28 64.4092 13.32C64.4092 14.76 63.8732 15.904 62.8012 16.752C61.7292 17.584 60.2732 18 58.4332 18H50.3212V0.912H58.1932C59.9692 0.912 61.3692 1.312 62.3932 2.112C63.4332 2.896 63.9532 3.976 63.9532 5.352C63.9532 6.248 63.7132 7.032 63.2332 7.704C62.7692 8.376 62.1212 8.864 61.2892 9.168ZM53.9692 7.872H57.5692C58.5292 7.872 59.2412 7.712 59.7052 7.392C60.1852 7.056 60.4252 6.544 60.4252 5.856C60.4252 5.152 60.1852 4.632 59.7052 4.296C59.2412 3.96 58.5292 3.792 57.5692 3.792H53.9692V7.872ZM58.0012 15.12C59.0092 15.12 59.7372 14.952 60.1852 14.616C60.6492 14.264 60.8812 13.712 60.8812 12.96C60.8812 12.192 60.6492 11.632 60.1852 11.28C59.7372 10.928 59.0092 10.752 58.0012 10.752H53.9692V15.12H58.0012ZM77.7121 12.216H69.6961C69.7601 13.352 70.0561 14.184 70.5841 14.712C71.1121 15.224 71.8961 15.48 72.9361 15.48C73.5601 15.48 74.1841 15.376 74.8081 15.168C75.4321 14.96 76.0081 14.656 76.5361 14.256L77.4961 16.704C76.9201 17.168 76.2001 17.536 75.3361 17.808C74.4881 18.064 73.6321 18.192 72.7681 18.192C70.7201 18.192 69.1121 17.632 67.9441 16.512C66.7761 15.376 66.1921 13.832 66.1921 11.88C66.1921 10.648 66.4401 9.552 66.9361 8.592C67.4481 7.616 68.1601 6.864 69.0721 6.336C69.9841 5.792 71.0161 5.52 72.1681 5.52C73.8801 5.52 75.2321 6.08 76.2241 7.2C77.2161 8.304 77.7121 9.8 77.7121 11.688V12.216ZM72.2641 8.064C71.5761 8.064 71.0161 8.264 70.5841 8.664C70.1681 9.064 69.8961 9.648 69.7681 10.416H74.5921C74.4001 8.848 73.6241 8.064 72.2641 8.064ZM92.1794 5.832V18H88.6034V16.2C88.2354 16.824 87.7154 17.312 87.0434 17.664C86.3714 18.016 85.6114 18.192 84.7634 18.192C83.7074 18.192 82.7714 17.936 81.9554 17.424C81.1554 16.912 80.5234 16.184 80.0594 15.24C79.6114 14.28 79.3874 13.176 79.3874 11.928C79.3874 10.68 79.6114 9.568 80.0594 8.592C80.5234 7.616 81.1634 6.864 81.9794 6.336C82.7954 5.792 83.7234 5.52 84.7634 5.52C85.6114 5.52 86.3714 5.704 87.0434 6.072C87.7154 6.44 88.2354 6.936 88.6034 7.56V5.832H92.1794ZM85.8194 15.432C86.7154 15.432 87.4034 15.128 87.8834 14.52C88.3634 13.912 88.6034 13.032 88.6034 11.88C88.6034 10.728 88.3634 9.848 87.8834 9.24C87.4034 8.616 86.7154 8.304 85.8194 8.304C84.9234 8.304 84.2274 8.624 83.7314 9.264C83.2354 9.904 82.9874 10.792 82.9874 11.928C82.9874 13.064 83.2274 13.936 83.7074 14.544C84.2034 15.136 84.9074 15.432 85.8194 15.432ZM106.721 5.832V18H103.193V16.224C102.809 16.864 102.305 17.352 101.681 17.688C101.057 18.024 100.353 18.192 99.5686 18.192C98.0486 18.192 96.9126 17.768 96.1606 16.92C95.4086 16.072 95.0326 14.792 95.0326 13.08V5.832H98.6566V13.152C98.6566 14.624 99.2886 15.36 100.553 15.36C101.305 15.36 101.913 15.104 102.377 14.592C102.841 14.08 103.073 13.408 103.073 12.576V5.832H106.721ZM114.219 8.544V13.272C114.219 13.944 114.395 14.44 114.747 14.76C115.099 15.064 115.555 15.216 116.115 15.216C116.467 15.216 116.867 15.16 117.315 15.048V17.856C116.739 18.08 116.043 18.192 115.227 18.192C113.723 18.192 112.571 17.768 111.771 16.92C110.987 16.072 110.595 14.88 110.595 13.344V8.544H108.291V5.832H110.595V2.976L114.219 1.8V5.832H117.315V8.544H114.219ZM131.409 5.832L125.793 18.648C125.105 20.2 124.233 21.336 123.177 22.056C122.137 22.792 120.857 23.264 119.337 23.472L118.497 20.688C119.617 20.448 120.457 20.144 121.017 19.776C121.593 19.408 122.041 18.872 122.361 18.168L122.721 17.376L117.705 5.832H121.497L124.617 13.728L127.833 5.832H131.409Z" fill="#28201E"/>
</svg>